<?xml version="1.0" encoding="UTF-8"?>
<svg id="Camada_1" xmlns="http://www.w3.org/2000/svg" version="1.1" viewBox="0 0 64 64">
  <!-- Generator: Adobe Illustrator 29.5.1, SVG Export Plug-In . SVG Version: 2.1.0 Build 141)  -->
  <defs>
    <style>
      .st0 {
        fill: #f20238;
      }
    </style>
  </defs>
  <polygon class="st0" points="15.32 54.33 13.78 51.2 40.79 37.92 40.79 36.58 19.84 30.8 19.84 25.78 50.44 8.87 52.13 11.92 23.33 27.84 23.33 28.14 44.27 33.93 44.27 40.09 15.32 54.33"/>
  <rect class="st0" x="35.5" y="23.04" width="18.29" height="3.49"/>
  <rect class="st0" x="50.48" y="33.85" width="3.49" height="19.85"/>
  <rect class="st0" x="40.79" y="35.25" width="3.49" height="15.63"/>
  <rect class="st0" x="30.47" y="45.1" width="3.49" height="12.66"/>
  <rect class="st0" x="11.11" y="37.26" width="21.1" height="3.49"/>
  <rect class="st0" x="30.78" y="7.27" width="3.49" height="13.5"/>
  <rect class="st0" x="19.85" y="14.93" width="3.49" height="12.82"/>
  <rect class="st0" x="10.77" y="9.77" width="3.49" height="19.38"/>
  <circle class="st0" cx="12.13" cy="10.13" r="4.5"/>
  <circle class="st0" cx="21.53" cy="14.56" r="3.13"/>
  <circle class="st0" cx="42.49" cy="51.48" r="3.13"/>
  <circle class="st0" cx="32.42" cy="7.85" r="4.5"/>
  <circle class="st0" cx="52.33" cy="9.64" r="4.5"/>
  <circle class="st0" cx="52.33" cy="24.41" r="4.5"/>
  <circle class="st0" cx="52.33" cy="53.24" r="4.5"/>
  <circle class="st0" cx="32.12" cy="56.37" r="4.5"/>
  <circle class="st0" cx="12.44" cy="54.08" r="4.5"/>
  <circle class="st0" cx="11.37" cy="39.13" r="4.5"/>
</svg>