<?xml version="1.0" encoding="UTF-8"?>
<svg id="Camada_1" xmlns="http://www.w3.org/2000/svg" version="1.1" viewBox="0 0 1920 1080">
  <!-- Generator: Adobe Illustrator 29.5.1, SVG Export Plug-In . SVG Version: 2.1.0 Build 141)  -->
  <defs>
    <style>
      .st0 {
        fill: #fff;
      }
    </style>
  </defs>
  <polygon class="st0" points="1420.45 652.01 1407.94 626.57 1627.55 518.61 1627.55 507.72 1457.22 460.69 1457.22 419.93 1706.05 282.42 1719.76 307.22 1485.57 436.65 1485.57 439.1 1655.9 486.13 1655.9 536.26 1420.45 652.01"/>
  <rect class="st0" x="1584.52" y="397.59" width="148.72" height="28.35"/>
  <rect class="st0" x="1706.36" y="485.48" width="28.35" height="161.43"/>
  <rect class="st0" x="1627.55" y="496.92" width="28.35" height="127.11"/>
  <rect class="st0" x="1543.66" y="577" width="28.35" height="102.96"/>
  <rect class="st0" x="1386.23" y="513.26" width="171.6" height="28.35"/>
  <rect class="st0" x="1546.2" y="269.4" width="28.35" height="109.8"/>
  <rect class="st0" x="1457.34" y="331.68" width="28.35" height="104.23"/>
  <rect class="st0" x="1383.5" y="289.74" width="28.35" height="157.62"/>
  <circle class="st0" cx="1394.54" cy="292.69" r="36.6"/>
  <circle class="st0" cx="1470.99" cy="328.67" r="25.43"/>
  <circle class="st0" cx="1641.43" cy="628.9" r="25.43"/>
  <circle class="st0" cx="1559.55" cy="274.08" r="36.6"/>
  <circle class="st0" cx="1721.39" cy="288.64" r="36.6"/>
  <circle class="st0" cx="1721.39" cy="408.73" r="36.6"/>
  <circle class="st0" cx="1721.39" cy="643.19" r="36.6"/>
  <circle class="st0" cx="1557.07" cy="668.6" r="36.6"/>
  <circle class="st0" cx="1397.02" cy="649.99" r="36.6"/>
  <circle class="st0" cx="1388.34" cy="528.41" r="36.6"/>
  <g>
    <path class="st0" d="M343.01,849.98l-26.32-67.19v-.86h8.36l21.57,55.78,21.1-55.78h8.17v.86l-25.94,67.19h-6.94Z"/>
    <path class="st0" d="M385.01,782.03h45.43v7.32h-36.97v22.62h30.03v7.32h-30.03v23.09h38.01v7.51h-46.47v-67.85Z"/>
    <path class="st0" d="M461.23,821.37h-10.74v28.51h-8.36l-.09-67.95h27.56c10.17,0,19.48,7.03,19.48,19.48,0,10.93-9.03,19.2-18.44,19.67l.86.66,19.1,27.18v.95h-8.74l-20.62-28.51ZM468.84,789.25h-18.34v24.61h18.44c6.18,0,12.26-5.32,12.26-12.35,0-7.7-6.08-12.26-12.35-12.26Z"/>
    <path class="st0" d="M522.63,822.23l-18.72,27.65h-8.55v-.66l22.62-33.36c-7.32-10.93-14.92-22.14-22.14-33.07v-.86h8.65l18.25,26.99,18.25-26.99h8.55v.86l-22.05,32.69,22.81,33.64v.76h-8.93l-18.72-27.65Z"/>
    <path class="st0" d="M592.57,781.93h8.36v67.95h-8.36v-67.95Z"/>
    <path class="st0" d="M624.22,798.37v51.51h-8.36v-67.95h6.37l38.11,50.46v-50.46h8.17v68.04h-5.32l-38.96-51.6Z"/>
    <path class="st0" d="M711.18,849.88h-8.46v-60.54h-24.99v-7.41h58.16v7.41h-24.71v60.54Z"/>
    <path class="st0" d="M745.3,782.03h45.43v7.32h-36.97v22.62h30.03v7.32h-30.03v23.09h38.01v7.51h-46.47v-67.85Z"/>
    <path class="st0" d="M802.32,781.93h8.46v60.16h37.16v7.79h-45.62v-67.95Z"/>
    <path class="st0" d="M861.62,781.93h8.36v67.95h-8.36v-67.95Z"/>
    <path class="st0" d="M930.05,846.74c-4.66,2.28-10.93,3.99-16.92,3.99-15.4,0-32.69-12.45-32.69-35.26s15.87-34.78,32.22-34.78c3.99,0,8.93.47,13.3,2,4.85,1.71,9.98,5.23,12.64,7.79l-4.09,6.08c-2.76-2.28-7.22-5.04-10.07-6.18-3.14-1.33-7.13-2.09-11.78-2.09-12.64,0-24.04,10.64-24.04,27.08s12.64,27.56,24.52,27.56c7.41,0,14.25-2.95,18.72-6.46l-.19.09v-16.06h-21.38l1.05-7.22h28.13v27.56c-2.38,2-5.8,4.09-9.41,5.89Z"/>
    <path class="st0" d="M949.91,782.03h45.43v7.32h-36.97v22.62h30.03v7.32h-30.03v23.09h38.01v7.51h-46.47v-67.85ZM972.53,770.53l-7.51,6.94h-8.55l14.35-14.16h3.9l13.78,14.16h-9.22l-6.75-6.94Z"/>
    <path class="st0" d="M1015.68,798.37v51.51h-8.36v-67.95h6.37l38.11,50.46v-50.46h8.17v68.04h-5.32l-38.96-51.6Z"/>
    <path class="st0" d="M1102.25,851.02c-14.73,0-32.79-12.26-32.79-35.26,0-21.38,16.73-35.16,32.41-35.16,11.69,0,20.15,4.66,27.18,11.02l-4.18,6.56c-6.37-5.61-13.31-9.79-22.71-9.79-12.07,0-24.23,10.74-24.23,27.46s12.83,27.56,24.42,27.56c10.07,0,17.58-5.13,23.09-10.17l4.56,5.8v.19c-5.04,5.42-14.44,11.78-27.75,11.78Z"/>
    <path class="st0" d="M1143.97,781.93h8.36v67.95h-8.36v-67.95Z"/>
    <path class="st0" d="M1208.6,833.73h-30.51c-2,5.23-4.09,10.93-6.18,16.16h-8.46l26.7-68.14h6.94l26.23,68.14h-8.65l-6.08-16.16ZM1180.85,826.41h24.99l-12.54-32.03-12.45,32.03Z"/>
    <path class="st0" d="M1301.26,833.73h-30.51c-2,5.23-4.09,10.93-6.18,16.16h-8.46l26.7-68.14h6.94l26.23,68.14h-8.65l-6.08-16.16ZM1273.51,826.41h24.99l-12.54-32.03-12.45,32.03Z"/>
    <path class="st0" d="M1343.26,821.37h-10.74v28.51h-8.36l-.09-67.95h27.56c10.17,0,19.48,7.03,19.48,19.48,0,10.93-9.03,19.2-18.44,19.67l.85.66,19.1,27.18v.95h-8.74l-20.62-28.51ZM1350.87,789.25h-18.34v24.61h18.44c6.18,0,12.26-5.32,12.26-12.35,0-7.7-6.08-12.26-12.35-12.26Z"/>
    <path class="st0" d="M1409.89,849.88h-8.46v-60.54h-24.99v-7.41h58.16v7.41h-24.71v60.54Z"/>
    <path class="st0" d="M1448.18,781.93h8.36v67.95h-8.36v-67.95Z"/>
    <path class="st0" d="M1479.93,813.67h28.89v7.41h-28.89l-.09,28.79h-8.36l.09-67.85h44.67v7.32h-36.3v24.33Z"/>
    <path class="st0" d="M1530.11,781.93h8.36v67.95h-8.36v-67.95Z"/>
    <path class="st0" d="M1583.23,851.02c-14.73,0-32.79-12.26-32.79-35.26,0-21.38,16.73-35.16,32.41-35.16,11.69,0,20.15,4.66,27.18,11.02l-4.18,6.56c-6.37-5.61-13.31-9.79-22.71-9.79-12.07,0-24.23,10.74-24.23,27.46s12.83,27.56,24.42,27.56c10.07,0,17.58-5.13,23.09-10.17l4.56,5.8v.19c-5.04,5.42-14.44,11.78-27.75,11.78Z"/>
    <path class="st0" d="M1624.95,781.93h8.36v67.95h-8.36v-67.95Z"/>
    <path class="st0" d="M1689.57,833.73h-30.51c-2,5.23-4.09,10.93-6.18,16.16h-8.46l26.7-68.14h6.94l26.23,68.14h-8.65l-6.08-16.16ZM1661.83,826.41h24.99l-12.54-32.03-12.45,32.03Z"/>
    <path class="st0" d="M1712.38,781.93h8.46v60.16h37.16v7.79h-45.62v-67.95Z"/>
  </g>
  <path class="st0" d="M318.46,706.18L122.33,382.64l4.29-11.93h128.36l114.05,196.13,109.75-196.13h120.73l4.77,10.98-188.97,324.49h-96.87Z"/>
  <path class="st0" d="M1108.33,370.71l196.13,323.54-4.29,11.93h-128.36l-114.05-196.13-109.75,196.13h-120.73l-4.77-10.98,188.97-324.49h96.87Z"/>
  <path class="st0" d="M648.64,370.71h129.32v334.52h-129.32v-334.52Z"/>
  <polyline class="st0" points="604.33 355.39 598.15 355.39 480.56 355.39 550.48 242.56 672.39 242.56 680.87 256.86 608.93 366.64"/>
  <polyline class="st0" points="1175.38 662 1011 662 999.38 651.2 1043.27 571.51 1164.58 571.51 1177.87 666.15"/>
</svg>